<svg id="Layer_1" data-name="Layer 1" xmlns="http://www.w3.org/2000/svg" viewBox="0 0 10 10"><defs><style>.cls-1{fill:#666;}</style></defs><path class="cls-1" d="M10,5.23a1.34,1.34,0,0,1-.07.18.43.43,0,0,1,0,0,.83.83,0,0,1-.13.18.34.34,0,0,1-.12.12.83.83,0,0,1-.18.13h0L1.56,9.83l-.11.06A.93.93,0,0,1,1,10a.75.75,0,0,1-.26,0h0a.44.44,0,0,1-.16-.06l-.1-.05h0a.8.8,0,0,1-.17-.15.86.86,0,0,1-.15-.22,0,0,0,0,1,0,0h0A.83.83,0,0,1,0,9.22.78.78,0,0,1,0,9V1A.78.78,0,0,1,0,.78.83.83,0,0,1,.11.56h0a0,0,0,0,1,0,0A.86.86,0,0,1,.27.32.8.8,0,0,1,.44.17h0l.1,0A.44.44,0,0,1,.71.05h0A.75.75,0,0,1,1,0a.78.78,0,0,1,.22,0,.83.83,0,0,1,.22.08h0l.11.06L9.45,4.11h0a.83.83,0,0,1,.18.13.34.34,0,0,1,.12.12.83.83,0,0,1,.13.18h0a.06.06,0,0,1,0,0,1.34,1.34,0,0,1,.07.18A.9.9,0,0,1,10,5.23Z"/></svg>