<svg id="Layer_2" data-name="Layer 2" xmlns="http://www.w3.org/2000/svg" viewBox="0 0 20 20"><defs><style>.cls-1{fill:#fff;}</style></defs><path class="cls-1" d="M10,0A10,10,0,1,0,20,10,10,10,0,0,0,10,0Zm0,18c-.9,0-2.09-1.68-2.66-4.5h5.32C12.09,16.32,10.9,18,10,18ZM7.06,11.5Q7,10.78,7,10t.06-1.5h5.88Q13,9.22,13,10t-.06,1.5ZM2,10a7.48,7.48,0,0,1,.15-1.5H5.06Q5,9.24,5,10t.06,1.5H2.15A7.48,7.48,0,0,1,2,10Zm8-8c.9,0,2.09,1.68,2.66,4.5H7.34C7.91,3.68,9.1,2,10,2Zm4.94,6.5h2.91a7.58,7.58,0,0,1,0,3H14.94Q15,10.77,15,10T14.94,8.5Zm2.24-2H14.7a13.06,13.06,0,0,0-1.14-3.65A8,8,0,0,1,17.18,6.5ZM6.44,2.85A13.06,13.06,0,0,0,5.3,6.5H2.82A8,8,0,0,1,6.44,2.85ZM2.82,13.5H5.3a13.06,13.06,0,0,0,1.14,3.65A8,8,0,0,1,2.82,13.5Zm10.74,3.65A13.06,13.06,0,0,0,14.7,13.5h2.48A8,8,0,0,1,13.56,17.15Z"/></svg>