<svg id="Layer_2" data-name="Layer 2" xmlns="http://www.w3.org/2000/svg" viewBox="0 0 20 20"><defs><style>.cls-1{fill:#b3b3b3;}</style></defs><path class="cls-1" d="M19,8H18A8,8,0,0,0,2,8H1A1,1,0,0,0,0,9V19a1,1,0,0,0,1,1H13a4.92,4.92,0,0,1-.9-2H2V10H18v2.1a4.92,4.92,0,0,1,2,.9V9A1,1,0,0,0,19,8ZM4,8A6,6,0,0,1,16,8Z"/><path class="cls-1" d="M10,16a1,1,0,0,0,1-1V14h1a1,1,0,0,0,0-2H8a1,1,0,0,0,0,2H9v1A1,1,0,0,0,10,16Z"/><path class="cls-1" d="M19,16H18V15a1,1,0,0,0-2,0v1H15a1,1,0,0,0,0,2h1v1a1,1,0,0,0,2,0V18h1a1,1,0,0,0,0-2Z"/></svg>