<svg id="Layer_2" data-name="Layer 2" xmlns="http://www.w3.org/2000/svg" viewBox="0 0 20 20"><path d="M20,4.75a.37.37,0,0,0,0-.14,1,1,0,0,0-.21-.32l-4-4a1,1,0,0,0-.32-.21.37.37,0,0,0-.14,0A.73.73,0,0,0,15,0H5A1,1,0,0,0,4,1V19a1,1,0,0,0,1,1h8a4.92,4.92,0,0,1-.9-2H6V2h8V5a1,1,0,0,0,1,1h3v6.1a4.92,4.92,0,0,1,2,.9V5A.73.73,0,0,0,20,4.75Z"/><path d="M16,9a1,1,0,0,0-1-1H9a1,1,0,0,0,0,2h6A1,1,0,0,0,16,9Z"/><path d="M9,12a1,1,0,0,0,0,2h2a1,1,0,0,0,0-2Z"/><path d="M1,0A1,1,0,0,0,0,1V19a1,1,0,0,0,2,0V1A1,1,0,0,0,1,0Z"/><path d="M9,6h2a1,1,0,0,0,0-2H9A1,1,0,0,0,9,6Z"/><path d="M19,16H18V15a1,1,0,0,0-2,0v1H15a1,1,0,0,0,0,2h1v1a1,1,0,0,0,2,0V18h1a1,1,0,0,0,0-2Z"/></svg>