<svg id="Layer_2" data-name="Layer 2" xmlns="http://www.w3.org/2000/svg" viewBox="0 0 20 20"><defs><style>.cls-1{fill:#fff;}</style></defs><path class="cls-1" d="M19,4H14V1a1,1,0,0,0-1-1H7A1,1,0,0,0,6,1V4H1A1,1,0,0,0,1,6H2s0,0,0,.08l1,13c0,.06,0,.11,0,.17a.75.75,0,0,0,.05.16.76.76,0,0,0,.12.19.94.94,0,0,0,.09.12,1.37,1.37,0,0,0,.2.13.34.34,0,0,0,.11.07A1,1,0,0,0,4,20H16a1,1,0,0,0,.38-.08.34.34,0,0,0,.11-.07,1.37,1.37,0,0,0,.2-.13.94.94,0,0,0,.09-.12,1.27,1.27,0,0,0,.13-.19c0-.05,0-.1,0-.16s0-.11.05-.17l1-13S18,6,18,6h1a1,1,0,0,0,0-2ZM8,2h4V4H8Zm7.07,16H4.93L4,6H16Z"/><path class="cls-1" d="M8,8A1,1,0,0,0,7,9v6a1,1,0,0,0,2,0V9A1,1,0,0,0,8,8Z"/><path class="cls-1" d="M12,8a1,1,0,0,0-1,1v6a1,1,0,0,0,2,0V9A1,1,0,0,0,12,8Z"/></svg>