<svg id="Layer_2" data-name="Layer 2" xmlns="http://www.w3.org/2000/svg" viewBox="0 0 20.01 20"><path d="M17.32,7.51,15.91,8.92a12.86,12.86,0,0,1,2,3.08c-1.73,3.71-4.73,6-7.9,6a6.66,6.66,0,0,1-2.63-.54L5.86,19A9,9,0,0,0,10,20c4.1,0,7.9-2.91,9.92-7.6a1,1,0,0,0,0-.8A14.45,14.45,0,0,0,17.32,7.51Z" transform="translate(0)"/><path d="M10,16a4,4,0,0,0,4-4,3.88,3.88,0,0,0-.14-1L9,15.86A3.88,3.88,0,0,0,10,16Z" transform="translate(0)"/><path d="M8.59,13.41l2.82-2.82,1.42-1.42,1.6-1.6,1.43-1.43,1.42-1.42L18.7,3.3l1-1a1,1,0,0,0,0-1.41,1,1,0,0,0-1.42,0L17.07,2.1a13.15,13.15,0,0,0-1.85-1A12.83,12.83,0,0,0,10,0,13.83,13.83,0,0,0,.29,4.21a1,1,0,0,0,0,1.41,1,1,0,0,0,1.42,0A11.78,11.78,0,0,1,10,2a10.58,10.58,0,0,1,3.68.66,10.54,10.54,0,0,1,1.93.9L14.14,5a9.15,9.15,0,0,0-2.06-.77A8.53,8.53,0,0,0,10,4C5.9,4,2.1,6.91.08,11.6a1,1,0,0,0,0,.8,14.94,14.94,0,0,0,1.36,2.5,13,13,0,0,0,1.24,1.59l-1.8,1.8a1,1,0,0,0,1.41,1.42l1.85-1.85,1.43-1.43,1.6-1.6Zm-4.5,1.67a12.65,12.65,0,0,1-1.21-1.62A14.38,14.38,0,0,1,2.1,12C3.83,8.29,6.82,6,10,6a1.72,1.72,0,0,1,.32,0,6.46,6.46,0,0,1,2.31.52L11,8.14A3.88,3.88,0,0,0,10,8a4,4,0,0,0-4,4,3.88,3.88,0,0,0,.14,1Z" transform="translate(0)"/></svg>