<svg id="Layer_2" data-name="Layer 2" xmlns="http://www.w3.org/2000/svg" viewBox="0 0 20 20"><path d="M10,0A10,10,0,1,0,20,10,10,10,0,0,0,10,0Zm0,18a8,8,0,1,1,8-8A8,8,0,0,1,10,18Z"/><path d="M10.71,4.29l-.15-.12-.18-.09L10.2,4A1,1,0,0,0,9,5a1.5,1.5,0,0,0,0,.2.64.64,0,0,0,.06.18.76.76,0,0,0,.09.18,1.58,1.58,0,0,0,.12.15,1,1,0,0,0,.33.21A.84.84,0,0,0,10,6l.2,0,.18-.06.18-.09.15-.12A1.05,1.05,0,0,0,11,5a.84.84,0,0,0-.08-.38A1,1,0,0,0,10.71,4.29Z"/><path d="M10,8H8a1,1,0,0,0,0,2H9v5a1,1,0,0,0,2,0V9A1,1,0,0,0,10,8Z"/></svg>