<svg id="Layer_3" data-name="Layer 3" xmlns="http://www.w3.org/2000/svg" viewBox="0 0 20 20"><defs><style>.cls-1{fill:#666;}</style></defs><path class="cls-1" d="M19,10H1a1,1,0,0,0-1,1v8a1,1,0,0,0,1,1H19a1,1,0,0,0,1-1V11A1,1,0,0,0,19,10Zm-7,4H11v3a1,1,0,0,1-2,0V14H8a1,1,0,0,1,0-2h4a1,1,0,0,1,0,2Z"/><path class="cls-1" d="M18,3V8H16V3a1,1,0,0,0-1-1H5A1,1,0,0,0,4,3V8H2V3A3,3,0,0,1,5,0H15A3,3,0,0,1,18,3Z"/><path class="cls-1" d="M19,10H1a1,1,0,0,0-1,1v8a1,1,0,0,0,1,1H19a1,1,0,0,0,1-1V11A1,1,0,0,0,19,10Zm-7,4H11v3a1,1,0,0,1-2,0V14H8a1,1,0,0,1,0-2h4a1,1,0,0,1,0,2Z"/></svg>