<svg id="Layer_2" data-name="Layer 2" xmlns="http://www.w3.org/2000/svg" viewBox="0 0 20 20"><path d="M10,4A1,1,0,0,0,9,5V9a1,1,0,0,0,2,0V5A1,1,0,0,0,10,4Z"/><path d="M10.71,12.29a1,1,0,0,0-.33-.21,1,1,0,0,0-.76,0,.9.9,0,0,0-.54.54,1,1,0,0,0,1.63,1.09,1.15,1.15,0,0,0,.21-.33.94.94,0,0,0,0-.76A1.15,1.15,0,0,0,10.71,12.29Z"/><path d="M15,0H5A5,5,0,0,0,0,5V19a1,1,0,0,0,.08.38,1,1,0,0,0,.54.54A1,1,0,0,0,1,20a1,1,0,0,0,.38-.08,1,1,0,0,0,.33-.21L3.41,18H15a5,5,0,0,0,5-5V5A5,5,0,0,0,15,0Zm0,16H2V5A3,3,0,0,1,5,2H15a3,3,0,0,1,3,3v8A3,3,0,0,1,15,16Z"/></svg>