<svg id="Layer_1" data-name="Layer 1" xmlns="http://www.w3.org/2000/svg" viewBox="0 0 1000 1000"><defs><style>.cls-1{fill:#fff;}.cls-2{fill:#ff0001;}.cls-3{fill:#1a719a;}.cls-4{fill:#0e2633;}.cls-5{fill:#184c66;}.cls-6{fill:#2c94c2;}.cls-7{fill:none;}</style></defs><rect class="cls-1" width="1000" height="1000"/><polygon class="cls-2" points="200 100 600 300 200 300 200 100"/><path class="cls-3" d="M0,0V700H150V100a50,50,0,0,1,50-50H800a50,50,0,0,1,50,50V700h150V0Z"/><path class="cls-4" d="M800,700V100H311.8L622.36,255.28A50,50,0,0,1,650,300V700Z"/><path class="cls-5" d="M650,900a50,50,0,0,1-72.36,44.72L188.2,750H0v250H1000V750H650Z"/><polygon class="cls-6" points="200 300 200 700 600 900 600 700 600 300 200 100 200 300"/><line class="cls-7" y1="50" x2="1000" y2="50"/></svg>