<svg id="Layer_1" data-name="Layer 1" xmlns="http://www.w3.org/2000/svg" viewBox="0 0 1100 1100"><defs><style>.cls-1{fill:#fff;}.cls-2{fill:#ff0001;}.cls-3{fill:#1a719a;}.cls-4{fill:#0e2633;}.cls-5{fill:#184c66;}.cls-6{fill:#2c94c2;}</style></defs><rect class="cls-1" width="1100" height="1100" rx="50"/><polygon class="cls-2" points="250 150 650 350 250 350 250 150"/><path class="cls-3" d="M50,50V750H200V150a50,50,0,0,1,50-50H850a50,50,0,0,1,50,50V750h150V50Z"/><path class="cls-4" d="M850,750V150H361.8L672.36,305.28A50,50,0,0,1,700,350V750Z"/><path class="cls-5" d="M700,950a50,50,0,0,1-72.36,44.72L238.2,800H50v250H1050V800H700Z"/><polygon class="cls-6" points="250 350 250 750 650 950 650 750 650 350 250 150 250 350"/></svg>