<svg id="Layer_2" data-name="Layer 2" xmlns="http://www.w3.org/2000/svg" viewBox="0 0 20 20"><defs><style>.cls-1{fill:gray;}</style></defs><path class="cls-1" d="M12.92,16.62a1,1,0,0,0-.54-.54A1,1,0,0,0,12,16H11V13a1,1,0,0,0-2,0v3H8a1,1,0,0,0-.38.08,1,1,0,0,0-.54.54,1,1,0,0,0,0,.76,1,1,0,0,0,.21.33l2,2a1,1,0,0,0,.33.21.94.94,0,0,0,.76,0,1,1,0,0,0,.33-.21l2-2a1,1,0,0,0,.21-.33A1,1,0,0,0,12.92,16.62Z"/><path class="cls-1" d="M7.08,3.38a1,1,0,0,0,.54.54A1,1,0,0,0,8,4H9V7a1,1,0,0,0,2,0V4h1a1,1,0,0,0,.38-.08,1,1,0,0,0,.54-.54,1,1,0,0,0,0-.76.93.93,0,0,0-.21-.33l-2-2a1,1,0,0,0-.33-.21.92.92,0,0,0-.76,0,1,1,0,0,0-.33.21l-2,2a.93.93,0,0,0-.21.33A1,1,0,0,0,7.08,3.38Z"/><path class="cls-1" d="M19.92,10.38a.92.92,0,0,0,0-.76.93.93,0,0,0-.21-.33l-2-2a.93.93,0,0,0-.33-.21,1,1,0,0,0-.76,0,1,1,0,0,0-.54.54A1,1,0,0,0,16,8V9H13a1,1,0,0,0,0,2h3v1a1,1,0,0,0,.08.38,1,1,0,0,0,.54.54.94.94,0,0,0,.76,0,.93.93,0,0,0,.33-.21l2-2A1.15,1.15,0,0,0,19.92,10.38Z"/><path class="cls-1" d="M4,11H7A1,1,0,0,0,7,9H4V8a1,1,0,0,0-.08-.38,1,1,0,0,0-.54-.54,1,1,0,0,0-.76,0,.93.93,0,0,0-.33.21l-2,2a.93.93,0,0,0-.21.33.92.92,0,0,0,0,.76,1.15,1.15,0,0,0,.21.33l2,2a.93.93,0,0,0,.33.21.94.94,0,0,0,.76,0,1,1,0,0,0,.54-.54A1,1,0,0,0,4,12Z"/></svg>