<svg id="Layer_2" data-name="Layer 2" xmlns="http://www.w3.org/2000/svg" viewBox="0 0 20 20"><path d="M3,4A1,1,0,0,0,3,2H1A1,1,0,0,0,0,3V17a1,1,0,0,0,1,1H3a1,1,0,0,0,0-2H2V4Z"/><path d="M20,17.12S20,17,20,17V3s0-.08,0-.12a1.29,1.29,0,0,0,0-.19.89.89,0,0,0-.08-.17.57.57,0,0,0-.11-.16.58.58,0,0,0-.14-.13.56.56,0,0,0-.15-.1l-.19-.08-.11,0-12-2H7.08L7,0,6.88,0l-.19,0L6.52.14a.91.91,0,0,0-.16.11.8.8,0,0,0-.13.13.86.86,0,0,0-.1.16.44.44,0,0,0-.07.19A.37.37,0,0,0,6,.84S6,.89,6,.92A.24.24,0,0,0,6,1V19a.24.24,0,0,0,0,.08s0,.06,0,.08,0,.09,0,.13a.88.88,0,0,0,.05.15c0,.07.08.12.12.18a.52.52,0,0,0,.1.11l.19.13.11.07A1.16,1.16,0,0,0,7,20h.16l12-2,.11,0,.19-.08a.56.56,0,0,0,.15-.1.58.58,0,0,0,.14-.13.57.57,0,0,0,.11-.16.89.89,0,0,0,.08-.17A1.29,1.29,0,0,0,20,17.12ZM8,2.18,18,3.85v12.3L8,17.82Z"/><path d="M11.71,9.29a1,1,0,0,0-.9-.27.6.6,0,0,0-.19.06l-.18.09-.15.12a1,1,0,0,0,0,1.42l.15.12.18.09a.6.6,0,0,0,.19.06L11,11a1,1,0,0,0,.71-.29,1,1,0,0,0,0-1.42Z"/></svg>