<svg id="Layer_1" data-name="Layer 1" xmlns="http://www.w3.org/2000/svg" viewBox="0 0 10 10"><defs><style>.cls-1{fill:#666;}</style></defs><path class="cls-1" d="M5.23,10l.18-.07h0a.83.83,0,0,0,.18-.13.34.34,0,0,0,.12-.12.83.83,0,0,0,.13-.18h0L9.83,1.56l.06-.11A.93.93,0,0,0,10,1a.75.75,0,0,0,0-.26,0,0,0,0,0,0,0A.44.44,0,0,0,9.89.55s0-.07-.05-.1h0A.8.8,0,0,0,9.68.27.86.86,0,0,0,9.46.12h0A.83.83,0,0,0,9.22,0,.78.78,0,0,0,9,0H1A.78.78,0,0,0,.78,0,.83.83,0,0,0,.56.11h0A.86.86,0,0,0,.32.27.8.8,0,0,0,.17.44h0s0,.07,0,.1A.44.44,0,0,0,.05.71a0,0,0,0,0,0,0A.75.75,0,0,0,0,1a.78.78,0,0,0,0,.22.83.83,0,0,0,.08.22h0l.06.11L4.11,9.45h0a.83.83,0,0,0,.13.18.34.34,0,0,0,.12.12.83.83,0,0,0,.18.13h0l.18.07A.9.9,0,0,0,5.23,10Z"/></svg>