<svg id="Layer_2" data-name="Layer 2" xmlns="http://www.w3.org/2000/svg" viewBox="0 0 20 20"><defs><style>.cls-1{fill:#666;}</style></defs><path class="cls-1" d="M16,3V4H5a2.77,2.77,0,0,0-.48,0,2.44,2.44,0,0,0-.7.2,1.25,1.25,0,0,0-.27.14l-.15.07-.14.1a3.33,3.33,0,0,0-.72.73l0,.06,0,.07a3.37,3.37,0,0,0-.19.38L2.2,5.9,0,12.51V1A1,1,0,0,1,1,0H7A1,1,0,0,1,8,1V2h7A1,1,0,0,1,16,3Z"/><path class="cls-1" d="M20,7a1.23,1.23,0,0,1,0,.2l0,.12-4,12,0,.07a1.19,1.19,0,0,1-.08.16,1.24,1.24,0,0,1-.28.28,1.4,1.4,0,0,1-.17.09.6.6,0,0,1-.19.06L15,20H1L.8,20a.6.6,0,0,1-.19-.06l-.16-.08a1.24,1.24,0,0,1-.28-.28,1.4,1.4,0,0,1-.09-.17A.6.6,0,0,1,0,19.2a1,1,0,0,1,0-.4.6.6,0,0,1,.06-.19l4-11.93,0-.07a1.19,1.19,0,0,1,.08-.16,1.24,1.24,0,0,1,.28-.28,1.4,1.4,0,0,1,.17-.09A.6.6,0,0,1,4.8,6L5,6H19l.2,0a.6.6,0,0,1,.19.06l.16.08a1.24,1.24,0,0,1,.28.28,1.4,1.4,0,0,1,.09.17A.6.6,0,0,1,20,6.8,1.23,1.23,0,0,1,20,7Z"/><path class="cls-1" d="M.08,18.61A.6.6,0,0,0,0,18.8l0-.12Z"/><path d="M.61,19.92A.6.6,0,0,0,.8,20L.68,20Z"/><path class="cls-1" d="M19.32,6.05l.07,0A.6.6,0,0,0,19.2,6Z"/></svg>