<svg id="Layer_2" data-name="Layer 2" xmlns="http://www.w3.org/2000/svg" viewBox="0 0 20 20"><defs><style>.cls-1{fill:#fff;}</style></defs><path class="cls-1" d="M20,4.75a.37.37,0,0,0,0-.14,1,1,0,0,0-.21-.32l-4-4a1,1,0,0,0-.32-.21.37.37,0,0,0-.14,0A.73.73,0,0,0,15,0H5A1,1,0,0,0,4,1V19a1,1,0,0,0,1,1H19a1,1,0,0,0,1-1V5A.73.73,0,0,0,20,4.75ZM6,2h8V5a1,1,0,0,0,1,1h3V18H6Z"/><path class="cls-1" d="M15,8H9a1,1,0,0,0,0,2h6a1,1,0,0,0,0-2Z"/><path class="cls-1" d="M11,12H9a1,1,0,0,0,0,2h2a1,1,0,0,0,0-2Z"/><path class="cls-1" d="M1,0A1,1,0,0,0,0,1V19a1,1,0,0,0,2,0V1A1,1,0,0,0,1,0Z"/><path class="cls-1" d="M9,6h2a1,1,0,0,0,0-2H9A1,1,0,0,0,9,6Z"/></svg>