<svg id="Layer_2" data-name="Layer 2" xmlns="http://www.w3.org/2000/svg" viewBox="0 0 20 20"><path d="M1.71,5.63A11.78,11.78,0,0,1,10,2a11.78,11.78,0,0,1,8.29,3.63,1,1,0,0,0,.71.29,1,1,0,0,0,.71-1.71A13.83,13.83,0,0,0,10,0,13.83,13.83,0,0,0,.29,4.21a1,1,0,0,0,0,1.41A1,1,0,0,0,1.71,5.63Z" transform="translate(0)"/><path d="M19.92,11.6C17.9,6.91,14.1,4,10,4S2.1,6.91.08,11.6a1,1,0,0,0,0,.8C2.1,17.09,5.9,20,10,20s7.9-2.91,9.92-7.6A1,1,0,0,0,19.92,11.6ZM10,18c-3.18,0-6.17-2.29-7.9-6C3.83,8.29,6.82,6,10,6s6.17,2.29,7.9,6C16.17,15.71,13.17,18,10,18Z" transform="translate(0)"/><circle cx="10" cy="12" r="4"/></svg>